<?xml version="1.0" encoding="utf-8"?>
<!-- Svg Vector Icons : http://www.onlinewebfonts.com/icon -->
<!DOCTYPE svg PUBLIC "-//W3C//DTD SVG 1.1//EN" "http://www.w3.org/Graphics/SVG/1.1/DTD/svg11.dtd">
<svg version="1.1" xmlns="http://www.w3.org/2000/svg" xmlns:xlink="http://www.w3.org/1999/xlink" x="0px" y="0px" viewBox="0 0 256 256" enable-background="new 0 0 256 256" xml:space="preserve">
<metadata> Svg Vector Icons : http://www.onlinewebfonts.com/icon </metadata>
<g><g><path fill="#515151" d="M128,246c-64.9,0-118-53.1-118-118S63.1,10,128,10s118,53.1,118,118c0,5.9-3.9,9.8-9.8,9.8c-5.9,0-9.8-3.9-9.8-9.8c0-54.1-44.3-98.3-98.3-98.3c-54.1,0-98.3,44.2-98.3,98.3c0,54.1,44.3,98.3,98.3,98.3c26.6,0,51.1-9.8,69.8-28.5c3.9-3.9,9.8-3.9,13.8,0c3.9,3.9,3.9,9.8,0,13.8C189,234.2,159.5,246,128,246z"/><path fill="#515151" d="M206.7,167.3c-21.6,0-39.3-17.7-39.3-39.3c0-5.9,3.9-9.8,9.8-9.8c5.9,0,9.8,3.9,9.8,9.8c0,10.8,8.9,19.7,19.7,19.7s19.7-8.8,19.7-19.7c0-5.9,3.9-9.8,9.8-9.8c5.9,0,9.8,3.9,9.8,9.8C246,149.6,228.3,167.3,206.7,167.3z"/><path fill="#515151" d="M128,187c-32.5,0-59-26.6-59-59c0-32.4,26.6-59,59-59c32.4,0,59,26.6,59,59C187,160.4,160.5,187,128,187z M128,88.7c-21.6,0-39.3,17.7-39.3,39.3c0,21.6,17.7,39.3,39.3,39.3c21.6,0,39.3-17.7,39.3-39.3C167.3,106.4,149.6,88.7,128,88.7z"/><path fill="#515151" d="M177.2,137.8c-5.9,0-9.8-3.9-9.8-9.8V78.8c0-5.9,3.9-9.8,9.8-9.8c5.9,0,9.8,3.9,9.8,9.8V128C187,133.9,183.1,137.8,177.2,137.8z"/></g></g>
</svg>